<mxfile host="app.diagrams.net" agent="Mozilla/5.0 (Windows NT 10.0; Win64; x64) AppleWebKit/537.36 (KHTML, like Gecko) Chrome/138.0.0.0 Safari/537.36" version="28.0.4">
  <diagram name="หน้า-1" id="yINgGY87hiQaUrzWzCxz">
    <mxGraphModel dx="1426" dy="743" grid="1" gridSize="10" guides="1" tooltips="1" connect="1" arrows="1" fold="1" page="1" pageScale="1" pageWidth="827" pageHeight="1169" math="0" shadow="0">
      <root>
        <mxCell id="0" />
        <mxCell id="1" parent="0" />
        <mxCell id="E96ORhK9GxkhAMzJGfh3-1" value="ทบทวนสัญลักษณ์" style="swimlane;fontFamily=Sarabun;fontSource=https%3A%2F%2Ffonts.googleapis.com%2Fcss%3Ffamily%3DSarabun;" vertex="1" parent="1">
          <mxGeometry x="94" y="20" width="640" height="290" as="geometry" />
        </mxCell>
        <mxCell id="E96ORhK9GxkhAMzJGfh3-2" value="&lt;font data-font-src=&quot;https://fonts.googleapis.com/css?family=Sarabun&quot; face=&quot;Sarabun&quot;&gt;เริ่มต้น&lt;/font&gt;" style="ellipse;whiteSpace=wrap;html=1;" vertex="1" parent="E96ORhK9GxkhAMzJGfh3-1">
          <mxGeometry x="20" y="40" width="130" height="30" as="geometry" />
        </mxCell>
        <mxCell id="E96ORhK9GxkhAMzJGfh3-3" value="" style="endArrow=classic;html=1;rounded=0;" edge="1" parent="E96ORhK9GxkhAMzJGfh3-1">
          <mxGeometry width="50" height="50" relative="1" as="geometry">
            <mxPoint x="84.5" y="70" as="sourcePoint" />
            <mxPoint x="84.5" y="120" as="targetPoint" />
          </mxGeometry>
        </mxCell>
        <mxCell id="E96ORhK9GxkhAMzJGfh3-4" value="&lt;font face=&quot;Sarabun&quot;&gt;สิ้นสุด&lt;/font&gt;" style="ellipse;whiteSpace=wrap;html=1;" vertex="1" parent="E96ORhK9GxkhAMzJGfh3-1">
          <mxGeometry x="150" y="90" width="130" height="30" as="geometry" />
        </mxCell>
        <mxCell id="E96ORhK9GxkhAMzJGfh3-5" value="" style="endArrow=classic;html=1;rounded=0;" edge="1" parent="E96ORhK9GxkhAMzJGfh3-1">
          <mxGeometry width="50" height="50" relative="1" as="geometry">
            <mxPoint x="214.5" y="40" as="sourcePoint" />
            <mxPoint x="214.5" y="90" as="targetPoint" />
          </mxGeometry>
        </mxCell>
        <mxCell id="E96ORhK9GxkhAMzJGfh3-6" value="กระบวนการ" style="rounded=0;whiteSpace=wrap;html=1;fontFamily=Sarabun;fontSource=https%3A%2F%2Ffonts.googleapis.com%2Fcss%3Ffamily%3DSarabun;" vertex="1" parent="E96ORhK9GxkhAMzJGfh3-1">
          <mxGeometry x="320" y="70" width="120" height="30" as="geometry" />
        </mxCell>
        <mxCell id="E96ORhK9GxkhAMzJGfh3-7" value="" style="endArrow=classic;html=1;rounded=0;" edge="1" parent="E96ORhK9GxkhAMzJGfh3-1">
          <mxGeometry width="50" height="50" relative="1" as="geometry">
            <mxPoint x="379" y="40" as="sourcePoint" />
            <mxPoint x="379.5" y="70" as="targetPoint" />
          </mxGeometry>
        </mxCell>
        <mxCell id="E96ORhK9GxkhAMzJGfh3-8" value="" style="endArrow=classic;html=1;rounded=0;" edge="1" parent="E96ORhK9GxkhAMzJGfh3-1">
          <mxGeometry width="50" height="50" relative="1" as="geometry">
            <mxPoint x="379.75" y="100" as="sourcePoint" />
            <mxPoint x="380.25" y="130" as="targetPoint" />
          </mxGeometry>
        </mxCell>
        <mxCell id="E96ORhK9GxkhAMzJGfh3-9" value="ประโยคเงื่อนไข" style="rhombus;whiteSpace=wrap;html=1;fontFamily=Sarabun;fontSource=https%3A%2F%2Ffonts.googleapis.com%2Fcss%3Ffamily%3DSarabun;" vertex="1" parent="E96ORhK9GxkhAMzJGfh3-1">
          <mxGeometry x="490" y="60" width="100" height="60" as="geometry" />
        </mxCell>
        <mxCell id="E96ORhK9GxkhAMzJGfh3-10" value="" style="endArrow=classic;html=1;rounded=0;" edge="1" parent="E96ORhK9GxkhAMzJGfh3-1">
          <mxGeometry width="50" height="50" relative="1" as="geometry">
            <mxPoint x="539.71" y="30" as="sourcePoint" />
            <mxPoint x="540.21" y="60" as="targetPoint" />
          </mxGeometry>
        </mxCell>
        <mxCell id="E96ORhK9GxkhAMzJGfh3-11" value="" style="endArrow=classic;html=1;rounded=0;" edge="1" parent="E96ORhK9GxkhAMzJGfh3-1">
          <mxGeometry width="50" height="50" relative="1" as="geometry">
            <mxPoint x="539.71" y="120" as="sourcePoint" />
            <mxPoint x="540" y="175" as="targetPoint" />
          </mxGeometry>
        </mxCell>
        <mxCell id="E96ORhK9GxkhAMzJGfh3-12" value="จริง" style="edgeLabel;html=1;align=center;verticalAlign=middle;resizable=0;points=[];fontFamily=Sarabun;fontSource=https%3A%2F%2Ffonts.googleapis.com%2Fcss%3Ffamily%3DSarabun;" vertex="1" connectable="0" parent="E96ORhK9GxkhAMzJGfh3-11">
          <mxGeometry x="-0.4142" y="-1" relative="1" as="geometry">
            <mxPoint as="offset" />
          </mxGeometry>
        </mxCell>
        <mxCell id="E96ORhK9GxkhAMzJGfh3-13" value="" style="endArrow=classic;html=1;rounded=0;exitX=1;exitY=0.5;exitDx=0;exitDy=0;" edge="1" parent="E96ORhK9GxkhAMzJGfh3-1" source="E96ORhK9GxkhAMzJGfh3-9">
          <mxGeometry width="50" height="50" relative="1" as="geometry">
            <mxPoint x="620" y="95" as="sourcePoint" />
            <mxPoint x="610" y="175" as="targetPoint" />
            <Array as="points">
              <mxPoint x="610" y="90" />
            </Array>
          </mxGeometry>
        </mxCell>
        <mxCell id="E96ORhK9GxkhAMzJGfh3-14" value="&lt;font data-font-src=&quot;https://fonts.googleapis.com/css?family=Sarabun&quot; face=&quot;Sarabun&quot;&gt;เท็จ&lt;/font&gt;" style="edgeLabel;html=1;align=center;verticalAlign=middle;resizable=0;points=[];" vertex="1" connectable="0" parent="E96ORhK9GxkhAMzJGfh3-13">
          <mxGeometry x="-0.0019" y="-2" relative="1" as="geometry">
            <mxPoint as="offset" />
          </mxGeometry>
        </mxCell>
        <mxCell id="E96ORhK9GxkhAMzJGfh3-15" value="&lt;font data-font-src=&quot;https://fonts.googleapis.com/css?family=Sarabun&quot; face=&quot;Sarabun&quot;&gt;ฟังก์ชัน/โมดูล&lt;/font&gt;" style="shape=process;whiteSpace=wrap;html=1;backgroundOutline=1;" vertex="1" parent="E96ORhK9GxkhAMzJGfh3-1">
          <mxGeometry x="25" y="180" width="120" height="30" as="geometry" />
        </mxCell>
        <mxCell id="E96ORhK9GxkhAMzJGfh3-16" value="" style="endArrow=classic;html=1;rounded=0;" edge="1" parent="E96ORhK9GxkhAMzJGfh3-1">
          <mxGeometry width="50" height="50" relative="1" as="geometry">
            <mxPoint x="84.70999999999998" y="150" as="sourcePoint" />
            <mxPoint x="85.20999999999998" y="180" as="targetPoint" />
          </mxGeometry>
        </mxCell>
        <mxCell id="E96ORhK9GxkhAMzJGfh3-17" value="" style="endArrow=classic;html=1;rounded=0;" edge="1" parent="E96ORhK9GxkhAMzJGfh3-1">
          <mxGeometry width="50" height="50" relative="1" as="geometry">
            <mxPoint x="84.70999999999998" y="210" as="sourcePoint" />
            <mxPoint x="85.20999999999998" y="240" as="targetPoint" />
          </mxGeometry>
        </mxCell>
        <mxCell id="E96ORhK9GxkhAMzJGfh3-18" value="" style="strokeWidth=2;html=1;shape=mxgraph.flowchart.start_2;whiteSpace=wrap;" vertex="1" parent="E96ORhK9GxkhAMzJGfh3-1">
          <mxGeometry x="205" y="185" width="20" height="20" as="geometry" />
        </mxCell>
        <mxCell id="E96ORhK9GxkhAMzJGfh3-19" value="" style="endArrow=classic;html=1;rounded=0;" edge="1" parent="E96ORhK9GxkhAMzJGfh3-1">
          <mxGeometry width="50" height="50" relative="1" as="geometry">
            <mxPoint x="214.70999999999998" y="155" as="sourcePoint" />
            <mxPoint x="215.20999999999998" y="185" as="targetPoint" />
          </mxGeometry>
        </mxCell>
        <mxCell id="E96ORhK9GxkhAMzJGfh3-20" value="" style="endArrow=classic;html=1;rounded=0;entryX=0;entryY=0.5;entryDx=0;entryDy=0;entryPerimeter=0;" edge="1" parent="E96ORhK9GxkhAMzJGfh3-1" target="E96ORhK9GxkhAMzJGfh3-18">
          <mxGeometry width="50" height="50" relative="1" as="geometry">
            <mxPoint x="189.99999999999997" y="155" as="sourcePoint" />
            <mxPoint x="190.49999999999997" y="185" as="targetPoint" />
            <Array as="points">
              <mxPoint x="190" y="180" />
            </Array>
          </mxGeometry>
        </mxCell>
        <mxCell id="E96ORhK9GxkhAMzJGfh3-21" value="" style="endArrow=classic;html=1;rounded=0;entryX=1;entryY=0.5;entryDx=0;entryDy=0;entryPerimeter=0;" edge="1" parent="E96ORhK9GxkhAMzJGfh3-1" target="E96ORhK9GxkhAMzJGfh3-18">
          <mxGeometry width="50" height="50" relative="1" as="geometry">
            <mxPoint x="239.99999999999997" y="155" as="sourcePoint" />
            <mxPoint x="240.49999999999997" y="185" as="targetPoint" />
            <Array as="points">
              <mxPoint x="240" y="180" />
            </Array>
          </mxGeometry>
        </mxCell>
        <mxCell id="E96ORhK9GxkhAMzJGfh3-22" value="" style="endArrow=classic;html=1;rounded=0;" edge="1" parent="E96ORhK9GxkhAMzJGfh3-1">
          <mxGeometry width="50" height="50" relative="1" as="geometry">
            <mxPoint x="214.70999999999998" y="205" as="sourcePoint" />
            <mxPoint x="215.20999999999998" y="235" as="targetPoint" />
          </mxGeometry>
        </mxCell>
        <mxCell id="E96ORhK9GxkhAMzJGfh3-23" value="&lt;font data-font-src=&quot;https://fonts.googleapis.com/css?family=Sarabun&quot; face=&quot;Sarabun&quot;&gt;ตัวเชื่อม&lt;/font&gt;" style="text;html=1;align=center;verticalAlign=middle;resizable=0;points=[];autosize=1;strokeColor=none;fillColor=none;" vertex="1" parent="E96ORhK9GxkhAMzJGfh3-1">
          <mxGeometry x="220" y="190" width="60" height="30" as="geometry" />
        </mxCell>
        <mxCell id="E96ORhK9GxkhAMzJGfh3-24" value="" style="endArrow=classic;html=1;rounded=0;" edge="1" parent="E96ORhK9GxkhAMzJGfh3-1">
          <mxGeometry width="50" height="50" relative="1" as="geometry">
            <mxPoint x="353.71" y="165" as="sourcePoint" />
            <mxPoint x="354.21" y="195" as="targetPoint" />
          </mxGeometry>
        </mxCell>
        <mxCell id="E96ORhK9GxkhAMzJGfh3-25" value="" style="verticalLabelPosition=bottom;verticalAlign=top;html=1;shape=offPageConnector;rounded=0;size=0.5;" vertex="1" parent="E96ORhK9GxkhAMzJGfh3-1">
          <mxGeometry x="339" y="195" width="30" height="30" as="geometry" />
        </mxCell>
        <mxCell id="E96ORhK9GxkhAMzJGfh3-26" value="" style="endArrow=classic;html=1;rounded=0;" edge="1" parent="E96ORhK9GxkhAMzJGfh3-1">
          <mxGeometry width="50" height="50" relative="1" as="geometry">
            <mxPoint x="405.71" y="195" as="sourcePoint" />
            <mxPoint x="406.21" y="225" as="targetPoint" />
          </mxGeometry>
        </mxCell>
        <mxCell id="E96ORhK9GxkhAMzJGfh3-27" value="" style="verticalLabelPosition=bottom;verticalAlign=top;html=1;shape=offPageConnector;rounded=0;size=0.5;" vertex="1" parent="E96ORhK9GxkhAMzJGfh3-1">
          <mxGeometry x="391" y="165" width="30" height="30" as="geometry" />
        </mxCell>
        <mxCell id="E96ORhK9GxkhAMzJGfh3-28" value="หน้าต่อไป" style="text;html=1;align=center;verticalAlign=middle;resizable=0;points=[];autosize=1;strokeColor=none;fillColor=none;fontFamily=Sarabun;fontSource=https%3A%2F%2Ffonts.googleapis.com%2Fcss%3Ffamily%3DSarabun;" vertex="1" parent="E96ORhK9GxkhAMzJGfh3-1">
          <mxGeometry x="345" y="220" width="70" height="30" as="geometry" />
        </mxCell>
        <mxCell id="E96ORhK9GxkhAMzJGfh3-29" value="ก" style="text;html=1;align=center;verticalAlign=middle;resizable=0;points=[];autosize=1;strokeColor=none;fillColor=none;fontFamily=Sarabun;fontSource=https%3A%2F%2Ffonts.googleapis.com%2Fcss%3Ffamily%3DSarabun;" vertex="1" parent="E96ORhK9GxkhAMzJGfh3-1">
          <mxGeometry x="339" y="190" width="30" height="30" as="geometry" />
        </mxCell>
        <mxCell id="E96ORhK9GxkhAMzJGfh3-30" value="ก" style="text;html=1;align=center;verticalAlign=middle;resizable=0;points=[];autosize=1;strokeColor=none;fillColor=none;fontFamily=Sarabun;fontSource=https%3A%2F%2Ffonts.googleapis.com%2Fcss%3Ffamily%3DSarabun;" vertex="1" parent="E96ORhK9GxkhAMzJGfh3-1">
          <mxGeometry x="391" y="160" width="30" height="30" as="geometry" />
        </mxCell>
        <mxCell id="E96ORhK9GxkhAMzJGfh3-31" value="แสดงผล/รับค่า" style="shape=parallelogram;perimeter=parallelogramPerimeter;whiteSpace=wrap;html=1;fixedSize=1;fontFamily=Sarabun;fontSource=https%3A%2F%2Ffonts.googleapis.com%2Fcss%3Ffamily%3DSarabun;" vertex="1" parent="E96ORhK9GxkhAMzJGfh3-1">
          <mxGeometry x="450" y="210" width="120" height="30" as="geometry" />
        </mxCell>
        <mxCell id="E96ORhK9GxkhAMzJGfh3-32" value="" style="endArrow=classic;html=1;rounded=0;" edge="1" parent="E96ORhK9GxkhAMzJGfh3-1">
          <mxGeometry width="50" height="50" relative="1" as="geometry">
            <mxPoint x="509.71" y="180" as="sourcePoint" />
            <mxPoint x="510.21" y="210" as="targetPoint" />
          </mxGeometry>
        </mxCell>
        <mxCell id="E96ORhK9GxkhAMzJGfh3-33" value="" style="endArrow=classic;html=1;rounded=0;" edge="1" parent="E96ORhK9GxkhAMzJGfh3-1">
          <mxGeometry width="50" height="50" relative="1" as="geometry">
            <mxPoint x="509.71" y="240" as="sourcePoint" />
            <mxPoint x="510.21" y="270" as="targetPoint" />
          </mxGeometry>
        </mxCell>
        <mxCell id="E96ORhK9GxkhAMzJGfh3-34" value="แก้ไขโจทย์ปัญหา" style="swimlane;fontFamily=Sarabun;fontSource=https%3A%2F%2Ffonts.googleapis.com%2Fcss%3Ffamily%3DSarabun;" vertex="1" parent="1">
          <mxGeometry x="94" y="630" width="640" height="820" as="geometry" />
        </mxCell>
        <mxCell id="E96ORhK9GxkhAMzJGfh3-35" value="&lt;font data-font-src=&quot;https://fonts.googleapis.com/css?family=Sarabun&quot; face=&quot;Sarabun&quot;&gt;เริ่มต้น&lt;/font&gt;" style="ellipse;whiteSpace=wrap;html=1;" vertex="1" parent="E96ORhK9GxkhAMzJGfh3-34">
          <mxGeometry x="255" y="40" width="130" height="30" as="geometry" />
        </mxCell>
        <mxCell id="E96ORhK9GxkhAMzJGfh3-36" value="&lt;font face=&quot;Sarabun&quot;&gt;สิ้นสุด&lt;/font&gt;" style="ellipse;whiteSpace=wrap;html=1;" vertex="1" parent="E96ORhK9GxkhAMzJGfh3-34">
          <mxGeometry x="255" y="750" width="130" height="30" as="geometry" />
        </mxCell>
        <mxCell id="E96ORhK9GxkhAMzJGfh3-37" value="" style="edgeStyle=orthogonalEdgeStyle;rounded=0;orthogonalLoop=1;jettySize=auto;html=1;" edge="1" parent="E96ORhK9GxkhAMzJGfh3-34" source="E96ORhK9GxkhAMzJGfh3-38" target="E96ORhK9GxkhAMzJGfh3-41">
          <mxGeometry relative="1" as="geometry" />
        </mxCell>
        <mxCell id="E96ORhK9GxkhAMzJGfh3-38" value="รายการสินค้า" style="shape=parallelogram;perimeter=parallelogramPerimeter;whiteSpace=wrap;html=1;fixedSize=1;" vertex="1" parent="E96ORhK9GxkhAMzJGfh3-34">
          <mxGeometry x="260" y="110" width="120" height="60" as="geometry" />
        </mxCell>
        <mxCell id="E96ORhK9GxkhAMzJGfh3-39" value="" style="endArrow=classic;html=1;rounded=0;" edge="1" parent="E96ORhK9GxkhAMzJGfh3-34">
          <mxGeometry width="50" height="50" relative="1" as="geometry">
            <mxPoint x="319.5" y="70" as="sourcePoint" />
            <mxPoint x="319.5" y="110" as="targetPoint" />
          </mxGeometry>
        </mxCell>
        <mxCell id="E96ORhK9GxkhAMzJGfh3-40" value="" style="endArrow=classic;html=1;rounded=0;" edge="1" parent="E96ORhK9GxkhAMzJGfh3-34">
          <mxGeometry width="50" height="50" relative="1" as="geometry">
            <mxPoint x="319.5" y="170" as="sourcePoint" />
            <mxPoint x="319.5" y="210" as="targetPoint" />
          </mxGeometry>
        </mxCell>
        <mxCell id="E96ORhK9GxkhAMzJGfh3-41" value="เลือกสินค้า" style="rhombus;whiteSpace=wrap;html=1;" vertex="1" parent="E96ORhK9GxkhAMzJGfh3-34">
          <mxGeometry x="280" y="210" width="80" height="80" as="geometry" />
        </mxCell>
        <mxCell id="E96ORhK9GxkhAMzJGfh3-42" value="" style="endArrow=none;html=1;rounded=0;" edge="1" parent="E96ORhK9GxkhAMzJGfh3-34">
          <mxGeometry width="50" height="50" relative="1" as="geometry">
            <mxPoint x="360" y="249.5" as="sourcePoint" />
            <mxPoint x="430" y="249.5" as="targetPoint" />
          </mxGeometry>
        </mxCell>
        <mxCell id="E96ORhK9GxkhAMzJGfh3-43" value="" style="endArrow=none;html=1;rounded=0;" edge="1" parent="E96ORhK9GxkhAMzJGfh3-34">
          <mxGeometry width="50" height="50" relative="1" as="geometry">
            <mxPoint x="430" y="150" as="sourcePoint" />
            <mxPoint x="430" y="250" as="targetPoint" />
          </mxGeometry>
        </mxCell>
        <mxCell id="E96ORhK9GxkhAMzJGfh3-44" value="" style="endArrow=classic;html=1;rounded=0;" edge="1" parent="E96ORhK9GxkhAMzJGfh3-34">
          <mxGeometry width="50" height="50" relative="1" as="geometry">
            <mxPoint x="430" y="150" as="sourcePoint" />
            <mxPoint x="380" y="150" as="targetPoint" />
          </mxGeometry>
        </mxCell>
        <mxCell id="E96ORhK9GxkhAMzJGfh3-45" value="" style="endArrow=classic;html=1;rounded=0;" edge="1" parent="E96ORhK9GxkhAMzJGfh3-34">
          <mxGeometry width="50" height="50" relative="1" as="geometry">
            <mxPoint x="319.5" y="290" as="sourcePoint" />
            <mxPoint x="319.5" y="330" as="targetPoint" />
          </mxGeometry>
        </mxCell>
        <mxCell id="E96ORhK9GxkhAMzJGfh3-46" value="เลือก" style="text;html=1;align=center;verticalAlign=middle;resizable=0;points=[];autosize=1;strokeColor=none;fillColor=none;" vertex="1" parent="E96ORhK9GxkhAMzJGfh3-34">
          <mxGeometry x="270" y="290" width="50" height="30" as="geometry" />
        </mxCell>
        <mxCell id="E96ORhK9GxkhAMzJGfh3-47" value="จำนวนสินค้า" style="shape=parallelogram;perimeter=parallelogramPerimeter;whiteSpace=wrap;html=1;fixedSize=1;" vertex="1" parent="E96ORhK9GxkhAMzJGfh3-34">
          <mxGeometry x="260" y="330" width="120" height="60" as="geometry" />
        </mxCell>
        <mxCell id="E96ORhK9GxkhAMzJGfh3-48" value="" style="endArrow=classic;html=1;rounded=0;" edge="1" parent="E96ORhK9GxkhAMzJGfh3-34">
          <mxGeometry width="50" height="50" relative="1" as="geometry">
            <mxPoint x="319" y="390" as="sourcePoint" />
            <mxPoint x="319" y="430" as="targetPoint" />
          </mxGeometry>
        </mxCell>
        <mxCell id="E96ORhK9GxkhAMzJGfh3-49" value="ราคารวม" style="shape=parallelogram;perimeter=parallelogramPerimeter;whiteSpace=wrap;html=1;fixedSize=1;" vertex="1" parent="E96ORhK9GxkhAMzJGfh3-34">
          <mxGeometry x="260" y="430" width="120" height="60" as="geometry" />
        </mxCell>
        <mxCell id="E96ORhK9GxkhAMzJGfh3-50" value="" style="endArrow=classic;html=1;rounded=0;" edge="1" parent="E96ORhK9GxkhAMzJGfh3-34">
          <mxGeometry width="50" height="50" relative="1" as="geometry">
            <mxPoint x="319" y="490" as="sourcePoint" />
            <mxPoint x="319" y="530" as="targetPoint" />
          </mxGeometry>
        </mxCell>
        <mxCell id="E96ORhK9GxkhAMzJGfh3-51" value="ชำระเงิน" style="rhombus;whiteSpace=wrap;html=1;" vertex="1" parent="E96ORhK9GxkhAMzJGfh3-34">
          <mxGeometry x="280" y="530" width="80" height="80" as="geometry" />
        </mxCell>
        <mxCell id="E96ORhK9GxkhAMzJGfh3-52" value="" style="endArrow=none;html=1;rounded=0;" edge="1" parent="E96ORhK9GxkhAMzJGfh3-34">
          <mxGeometry width="50" height="50" relative="1" as="geometry">
            <mxPoint x="360" y="569.5" as="sourcePoint" />
            <mxPoint x="430" y="569.5" as="targetPoint" />
          </mxGeometry>
        </mxCell>
        <mxCell id="E96ORhK9GxkhAMzJGfh3-53" value="" style="endArrow=none;html=1;rounded=0;" edge="1" parent="E96ORhK9GxkhAMzJGfh3-34">
          <mxGeometry width="50" height="50" relative="1" as="geometry">
            <mxPoint x="430" y="470" as="sourcePoint" />
            <mxPoint x="430" y="570" as="targetPoint" />
          </mxGeometry>
        </mxCell>
        <mxCell id="E96ORhK9GxkhAMzJGfh3-54" value="" style="endArrow=classic;html=1;rounded=0;" edge="1" parent="E96ORhK9GxkhAMzJGfh3-34">
          <mxGeometry width="50" height="50" relative="1" as="geometry">
            <mxPoint x="430" y="470" as="sourcePoint" />
            <mxPoint x="380" y="470" as="targetPoint" />
          </mxGeometry>
        </mxCell>
        <mxCell id="E96ORhK9GxkhAMzJGfh3-55" value="ไม่พอ" style="text;html=1;align=center;verticalAlign=middle;resizable=0;points=[];autosize=1;strokeColor=none;fillColor=none;" vertex="1" parent="E96ORhK9GxkhAMzJGfh3-34">
          <mxGeometry x="375" y="540" width="50" height="30" as="geometry" />
        </mxCell>
        <mxCell id="E96ORhK9GxkhAMzJGfh3-56" value="" style="endArrow=classic;html=1;rounded=0;" edge="1" parent="E96ORhK9GxkhAMzJGfh3-34">
          <mxGeometry width="50" height="50" relative="1" as="geometry">
            <mxPoint x="320" y="610" as="sourcePoint" />
            <mxPoint x="320" y="650" as="targetPoint" />
          </mxGeometry>
        </mxCell>
        <mxCell id="E96ORhK9GxkhAMzJGfh3-57" value="ครบ" style="text;html=1;align=center;verticalAlign=middle;resizable=0;points=[];autosize=1;strokeColor=none;fillColor=none;" vertex="1" parent="E96ORhK9GxkhAMzJGfh3-34">
          <mxGeometry x="280" y="610" width="40" height="30" as="geometry" />
        </mxCell>
        <mxCell id="E96ORhK9GxkhAMzJGfh3-58" value="จำนวนเงินในตู้" style="shape=parallelogram;perimeter=parallelogramPerimeter;whiteSpace=wrap;html=1;fixedSize=1;" vertex="1" parent="E96ORhK9GxkhAMzJGfh3-34">
          <mxGeometry x="260" y="650" width="120" height="60" as="geometry" />
        </mxCell>
        <mxCell id="E96ORhK9GxkhAMzJGfh3-59" value="" style="endArrow=classic;html=1;rounded=0;" edge="1" parent="E96ORhK9GxkhAMzJGfh3-34">
          <mxGeometry width="50" height="50" relative="1" as="geometry">
            <mxPoint x="319" y="710" as="sourcePoint" />
            <mxPoint x="319" y="750" as="targetPoint" />
          </mxGeometry>
        </mxCell>
        <mxCell id="E96ORhK9GxkhAMzJGfh3-60" value="นาย ณัฐวัฒน์ มาสุข&lt;div&gt;68543210025-1&lt;/div&gt;" style="text;html=1;align=center;verticalAlign=middle;resizable=0;points=[];autosize=1;strokeColor=none;fillColor=none;" vertex="1" parent="E96ORhK9GxkhAMzJGfh3-34">
          <mxGeometry x="30" y="740" width="120" height="40" as="geometry" />
        </mxCell>
        <mxCell id="E96ORhK9GxkhAMzJGfh3-61" value="&lt;font data-font-src=&quot;https://fonts.googleapis.com/css?family=Sarabun&quot; face=&quot;Sarabun&quot;&gt;โจทย์ปัญหา&lt;/font&gt;" style="swimlane;whiteSpace=wrap;html=1;" vertex="1" parent="1">
          <mxGeometry x="94" y="320" width="640" height="240" as="geometry" />
        </mxCell>
        <mxCell id="E96ORhK9GxkhAMzJGfh3-62" value="&lt;font data-font-src=&quot;https://fonts.googleapis.com/css?family=Sarabun&quot; face=&quot;Sarabun&quot; style=&quot;font-size: 14px;&quot;&gt;จงเขียน Flowchart เพื่อแสดงขั้นตอนการทำงาน ของเครื่องขายน้ำอัตโนมัติที่ชื่อว่า &quot;ตะพาบลอย&quot;&lt;br&gt;โดยจะต้องมีสินค้าดังนี้&lt;br&gt;&lt;u&gt;ประเภทน้ำ&lt;span style=&quot;white-space: pre;&quot;&gt;&#x9;&lt;/span&gt;&lt;span style=&quot;white-space: pre;&quot;&gt;&#x9;&lt;/span&gt;&lt;span style=&quot;white-space: pre;&quot;&gt;&#x9;&lt;/span&gt;&lt;span style=&quot;white-space: pre;&quot;&gt;&#x9;&lt;/span&gt;&lt;span style=&quot;white-space: pre;&quot;&gt;&#x9;&lt;/span&gt;&lt;span style=&quot;white-space: pre;&quot;&gt;&#x9;&lt;span style=&quot;white-space: pre;&quot;&gt;&#x9;&lt;/span&gt;ข&lt;/span&gt;นม&lt;/u&gt;&lt;br&gt;&lt;span style=&quot;white-space: pre;&quot;&gt;&#x9;&lt;/span&gt;- โค้ก กระป๋องละ 10 บาท&lt;span style=&quot;white-space: pre;&quot;&gt;&#x9;&lt;/span&gt;&lt;span style=&quot;white-space: pre;&quot;&gt;&#x9;&lt;/span&gt;&lt;span style=&quot;white-space: pre;&quot;&gt;&#x9;&lt;/span&gt;&lt;span style=&quot;white-space: pre;&quot;&gt;&#x9;&lt;/span&gt;- เมล็ดทานตะวัน 13 บาท&lt;br&gt;&lt;span style=&quot;white-space: pre;&quot;&gt;&#x9;&lt;/span&gt;- น้ำเขียว กระป๋องละ 12 บาท&lt;span style=&quot;white-space: pre;&quot;&gt;&#x9;&lt;/span&gt;&lt;span style=&quot;white-space: pre;&quot;&gt;&#x9;&lt;/span&gt;&lt;span style=&quot;white-space: pre;&quot;&gt;&#x9;&lt;/span&gt;- ถั่วแปบ 20 บาท&lt;br&gt;&lt;span style=&quot;white-space: pre;&quot;&gt;&#x9;&lt;/span&gt;- อเมริกาโน่ 30 บาท&lt;span style=&quot;white-space: pre;&quot;&gt;&#x9;&lt;/span&gt;&lt;span style=&quot;white-space: pre;&quot;&gt;&#x9;&lt;/span&gt;&lt;span style=&quot;white-space: pre;&quot;&gt;&#x9;&lt;/span&gt;&lt;span style=&quot;white-space: pre;&quot;&gt;&#x9;&lt;/span&gt;&lt;span style=&quot;white-space: pre;&quot;&gt;&#x9;&lt;/span&gt;- จิ้นส้มหมก 15 บาท&lt;br&gt;&lt;span style=&quot;white-space: pre;&quot;&gt;&#x9;&lt;/span&gt;- ลาเต้ หวานเจี๊ยบ 35 บาท&lt;span style=&quot;white-space: pre;&quot;&gt;&#x9;&lt;/span&gt;&lt;br&gt;&lt;br&gt;&lt;u&gt;สิ่งที่ระบบควรจะทำได้&lt;/u&gt;&lt;br&gt;&lt;span style=&quot;white-space: pre;&quot;&gt;&#x9;&lt;/span&gt;- ลูกค้าเลือกสินค้า, ระบบจะต้องรวมยอดขาย และรวมรายการสินค้าทั้งหมดที่ลูกค้าเลือก&lt;br&gt;&lt;span style=&quot;white-space: pre;&quot;&gt;&#x9;&lt;/span&gt;- สรุปยอดว่าเหลือเงินในตู้อีกเท่าไหร่ เหลือเหรียญอะไรบ้าง? ธนบัตรอะไรบ้าง? อย่างละเท่าไหร่?&lt;br&gt;&lt;br&gt;&lt;br&gt;&lt;/font&gt;" style="text;html=1;align=left;verticalAlign=middle;resizable=0;points=[];autosize=1;strokeColor=none;fillColor=none;fontSize=14;" vertex="1" parent="E96ORhK9GxkhAMzJGfh3-61">
          <mxGeometry x="25" y="30" width="580" height="240" as="geometry" />
        </mxCell>
      </root>
    </mxGraphModel>
  </diagram>
</mxfile>
